# Blender v2.82 (sub 7) OBJ File: 'models.blend'
# www.blender.org
o Goal_Circle
v -0.000000 0.000000 -0.366867
v -0.113368 0.000000 -0.348911
v -0.215639 0.000000 -0.296802
v -0.296802 0.000000 -0.215639
v -0.348911 0.000000 -0.113368
v -0.366867 0.000000 -0.000000
v -0.348911 0.000000 0.113368
v -0.296802 0.000000 0.215639
v -0.215639 0.000000 0.296802
v -0.113368 0.000000 0.348911
v 0.000000 0.000000 0.366867
v 0.113368 0.000000 0.348911
v 0.215639 0.000000 0.296801
v 0.296802 0.000000 0.215639
v 0.348911 0.000000 0.113368
v 0.366867 0.000000 -0.000001
v 0.348911 0.000000 -0.113369
v 0.296801 0.000000 -0.215640
v 0.215639 0.000000 -0.296802
v 0.113368 0.000000 -0.348912
v -0.113368 15.114500 -0.348911
v -0.000000 15.114500 -0.366867
v -0.215639 15.114500 -0.296802
v -0.296802 15.114500 -0.215639
v -0.348911 15.114500 -0.113368
v -0.366867 15.114500 -0.000000
v -0.348911 15.114500 0.113368
v -0.296802 15.114500 0.215639
v -0.215639 15.114500 0.296802
v -0.113368 15.114500 0.348911
v 0.000000 15.114500 0.366867
v 0.113368 15.114500 0.348911
v 0.215639 15.114500 0.296801
v 0.296802 15.114500 0.215639
v 0.348911 15.114500 0.113368
v 0.366867 15.114500 -0.000001
v 0.348911 15.114500 -0.113369
v 0.296801 15.114500 -0.215640
v 0.215639 15.114500 -0.296802
v 0.113368 15.114500 -0.348912
v 0.189896 10.137784 0.091774
v 6.594982 10.137784 0.091774
v 0.189896 14.656016 0.091774
v 6.594982 14.656016 0.091774
v 0.189896 14.656016 -0.108226
v 0.189896 10.137784 -0.108226
v 6.594982 10.137784 -0.108226
v 6.594982 14.656016 -0.108226
v 0.366867 3.571648 -0.000001
v 0.348911 3.571648 0.113368
v -0.215639 3.571648 0.296802
v -0.296802 3.571648 0.215639
v -0.113368 3.571648 -0.348911
v -0.000000 3.571648 -0.366867
v 0.348911 3.571648 -0.113369
v -0.113368 3.571648 0.348911
v -0.215639 3.571648 -0.296802
v 0.296801 3.571648 -0.215640
v 0.000000 3.571648 0.366867
v -0.296802 3.571648 -0.215639
v 0.215639 3.571648 -0.296802
v 0.113368 3.571648 0.348911
v -0.348911 3.571648 -0.113368
v 0.113368 3.571648 -0.348912
v 0.215639 3.571648 0.296801
v -0.366867 3.571648 -0.000000
v 0.296802 3.571648 0.215639
v -0.348911 3.571648 0.113368
v 0.366867 9.048433 -0.000001
v -0.215639 9.048433 0.296802
v -0.113368 9.048433 -0.348911
v 0.348911 9.048433 -0.113369
v -0.113368 9.048433 0.348911
v -0.215639 9.048433 -0.296802
v 0.296801 9.048433 -0.215640
v 0.000000 9.048433 0.366867
v -0.296802 9.048433 -0.215639
v 0.215639 9.048433 -0.296802
v 0.113368 9.048433 0.348911
v -0.348911 9.048433 -0.113368
v 0.113368 9.048433 -0.348912
v 0.215639 9.048433 0.296801
v -0.366867 9.048433 -0.000000
v 0.296802 9.048433 0.215639
v -0.348911 9.048433 0.113368
v 0.348911 9.048433 0.113368
v -0.296802 9.048433 0.215639
v -0.000000 9.048433 -0.366867
vt 0.876600 0.684454
vt 0.913184 0.678659
vt 0.909603 0.701270
vt 0.913184 0.720326
vt 0.915067 0.732213
vt 0.878483 0.738007
vt 0.334933 0.001600
vt 0.373400 0.331733
vt 0.373400 0.001600
vt 0.665067 0.334933
vt 0.334933 0.373400
vt 0.665067 0.373400
vt 0.376600 0.001600
vt 0.415067 0.331733
vt 0.415067 0.001600
vt 0.665067 0.376600
vt 0.334933 0.415067
vt 0.665067 0.415067
vt 0.418267 0.001600
vt 0.456733 0.331733
vt 0.456733 0.001600
vt 0.665067 0.418267
vt 0.334933 0.456733
vt 0.665067 0.456733
vt 0.459933 0.001600
vt 0.498400 0.331733
vt 0.498400 0.001600
vt 0.665067 0.459933
vt 0.334933 0.498400
vt 0.665067 0.498400
vt 0.501600 0.001600
vt 0.540067 0.331733
vt 0.540067 0.001600
vt 0.665067 0.668267
vt 0.334933 0.706733
vt 0.665067 0.706733
vt 0.584933 0.001600
vt 0.623400 0.331733
vt 0.623400 0.001600
vt 0.665067 0.501600
vt 0.334933 0.540067
vt 0.665067 0.540067
vt 0.626600 0.001600
vt 0.665067 0.331733
vt 0.665067 0.001600
vt 0.665067 0.543267
vt 0.334933 0.581733
vt 0.665067 0.581733
vt 0.668267 0.001600
vt 0.706733 0.331733
vt 0.706733 0.001600
vt 0.665067 0.584933
vt 0.334933 0.623400
vt 0.665067 0.623400
vt 0.668267 0.334933
vt 0.706733 0.665067
vt 0.706733 0.334933
vt 0.665067 0.626600
vt 0.334933 0.665067
vt 0.665067 0.665067
vt 0.709933 0.001600
vt 0.748400 0.331733
vt 0.748400 0.001600
vt 0.331733 0.668267
vt 0.001600 0.706733
vt 0.331733 0.706733
vt 0.959933 0.834933
vt 0.998400 0.998400
vt 0.998400 0.834933
vt 0.331733 0.959933
vt 0.168267 0.998400
vt 0.331733 0.998400
vt 0.959933 0.668267
vt 0.998400 0.831733
vt 0.998400 0.668267
vt 0.165067 0.959933
vt 0.001600 0.998400
vt 0.165067 0.998400
vt 0.668267 0.834933
vt 0.706733 0.998400
vt 0.706733 0.834933
vt 0.498400 0.959933
vt 0.334933 0.998400
vt 0.498400 0.998400
vt 0.959933 0.501600
vt 0.998400 0.665067
vt 0.998400 0.501600
vt 0.956733 0.918267
vt 0.793267 0.956733
vt 0.956733 0.956733
vt 0.959933 0.334933
vt 0.998400 0.498400
vt 0.998400 0.334933
vt 0.956733 0.876600
vt 0.793267 0.915067
vt 0.956733 0.915067
vt 0.959933 0.168267
vt 0.998400 0.331733
vt 0.998400 0.168267
vt 0.956733 0.834933
vt 0.793267 0.873400
vt 0.956733 0.873400
vt 0.959933 0.001600
vt 0.998400 0.165067
vt 0.998400 0.001600
vt 0.956733 0.793267
vt 0.793267 0.831733
vt 0.956733 0.831733
vt 0.751600 0.793267
vt 0.790067 0.956733
vt 0.790067 0.793267
vt 0.915067 0.751600
vt 0.751600 0.790067
vt 0.915067 0.790067
vt 0.709933 0.751600
vt 0.748400 0.915067
vt 0.748400 0.751600
vt 0.873400 0.709933
vt 0.709933 0.748400
vt 0.873400 0.748400
vt 0.668267 0.668267
vt 0.706733 0.831733
vt 0.706733 0.668267
vt 0.873400 0.668267
vt 0.709933 0.706733
vt 0.873400 0.706733
vt 0.904674 0.704851
vt 0.898880 0.706733
vt 0.892787 0.706733
vt 0.886993 0.704851
vt 0.882064 0.701270
vt 0.878483 0.696341
vt 0.876600 0.690546
vt 0.878483 0.678659
vt 0.882064 0.673730
vt 0.886993 0.670149
vt 0.892787 0.668267
vt 0.898880 0.668267
vt 0.904674 0.670149
vt 0.909603 0.673730
vt 0.915067 0.684454
vt 0.915067 0.690546
vt 0.913184 0.696341
vt 0.913184 0.738007
vt 0.909603 0.742936
vt 0.904674 0.746517
vt 0.898880 0.748400
vt 0.892787 0.748400
vt 0.886993 0.746517
vt 0.882064 0.742936
vt 0.876600 0.732213
vt 0.876600 0.726120
vt 0.878483 0.720326
vt 0.882064 0.715397
vt 0.886993 0.711816
vt 0.892787 0.709933
vt 0.898880 0.709933
vt 0.904674 0.711816
vt 0.909603 0.715397
vt 0.915067 0.726120
vt 0.334933 0.331733
vt 0.334933 0.334933
vt 0.376600 0.331733
vt 0.334933 0.376600
vt 0.418267 0.331733
vt 0.334933 0.418267
vt 0.459933 0.331733
vt 0.334933 0.459933
vt 0.501600 0.331733
vt 0.334933 0.668267
vt 0.584933 0.331733
vt 0.334933 0.501600
vt 0.626600 0.331733
vt 0.334933 0.543267
vt 0.668267 0.331733
vt 0.334933 0.584933
vt 0.668267 0.665067
vt 0.334933 0.626600
vt 0.709933 0.331733
vt 0.001600 0.668267
vt 0.959933 0.998400
vt 0.168267 0.959933
vt 0.959933 0.831733
vt 0.001600 0.959933
vt 0.668267 0.998400
vt 0.334933 0.959933
vt 0.959933 0.665067
vt 0.793267 0.918267
vt 0.959933 0.498400
vt 0.793267 0.876600
vt 0.959933 0.331733
vt 0.793267 0.834933
vt 0.959933 0.165067
vt 0.793267 0.793267
vt 0.751600 0.956733
vt 0.751600 0.751600
vt 0.709933 0.915067
vt 0.709933 0.709933
vt 0.668267 0.831733
vt 0.709933 0.668267
vt 0.001600 0.334933
vt 0.331733 0.665067
vt 0.331733 0.334933
vt 0.001600 0.001600
vt 0.331733 0.331733
vt 0.331733 0.001600
vt 0.748400 0.334933
vt 0.709933 0.665067
vt 0.748400 0.665067
vt 0.665067 0.748400
vt 0.334933 0.709933
vt 0.334933 0.748400
vt 0.790067 0.001600
vt 0.751600 0.331733
vt 0.790067 0.331733
vt 0.331733 0.790067
vt 0.001600 0.751600
vt 0.001600 0.790067
vt 0.918267 0.334933
vt 0.956733 0.665067
vt 0.956733 0.334933
vt 0.665067 0.918267
vt 0.334933 0.956733
vt 0.665067 0.956733
vt 0.918267 0.001600
vt 0.956733 0.331733
vt 0.956733 0.001600
vt 0.331733 0.918267
vt 0.001600 0.956733
vt 0.331733 0.956733
vt 0.876600 0.334933
vt 0.915067 0.665067
vt 0.915067 0.334933
vt 0.665067 0.876600
vt 0.334933 0.915067
vt 0.665067 0.915067
vt 0.876600 0.001600
vt 0.915067 0.331733
vt 0.915067 0.001600
vt 0.331733 0.876600
vt 0.001600 0.915067
vt 0.331733 0.915067
vt 0.834933 0.334933
vt 0.873400 0.665067
vt 0.873400 0.334933
vt 0.665067 0.834933
vt 0.334933 0.873400
vt 0.665067 0.873400
vt 0.834933 0.001600
vt 0.873400 0.331733
vt 0.873400 0.001600
vt 0.331733 0.834933
vt 0.001600 0.873400
vt 0.331733 0.873400
vt 0.793267 0.334933
vt 0.831733 0.665067
vt 0.831733 0.334933
vt 0.331733 0.793267
vt 0.001600 0.831733
vt 0.331733 0.831733
vt 0.793267 0.001600
vt 0.831733 0.331733
vt 0.831733 0.001600
vt 0.665067 0.751600
vt 0.334933 0.790067
vt 0.665067 0.790067
vt 0.751600 0.334933
vt 0.790067 0.665067
vt 0.790067 0.334933
vt 0.665067 0.793267
vt 0.334933 0.831733
vt 0.665067 0.831733
vt 0.543267 0.001600
vt 0.581733 0.331733
vt 0.581733 0.001600
vt 0.331733 0.709933
vt 0.001600 0.748400
vt 0.331733 0.748400
vt 0.001600 0.665067
vt 0.001600 0.331733
vt 0.709933 0.334933
vt 0.665067 0.709933
vt 0.751600 0.001600
vt 0.331733 0.751600
vt 0.918267 0.665067
vt 0.334933 0.918267
vt 0.918267 0.331733
vt 0.001600 0.918267
vt 0.876600 0.665067
vt 0.334933 0.876600
vt 0.876600 0.331733
vt 0.001600 0.876600
vt 0.834933 0.665067
vt 0.334933 0.834933
vt 0.834933 0.331733
vt 0.001600 0.834933
vt 0.793267 0.665067
vt 0.001600 0.793267
vt 0.793267 0.331733
vt 0.334933 0.751600
vt 0.751600 0.665067
vt 0.334933 0.793267
vt 0.543267 0.331733
vt 0.001600 0.709933
vn 0.7030 -0.6735 0.2284
vn -0.7030 -0.6735 0.2284
vn -0.4345 -0.6735 -0.5980
vn 0.4345 0.6735 -0.5980
vn 0.0000 0.6735 -0.7391
vn -0.4345 0.6735 0.5980
vn 1.0000 0.0000 0.0000
vn 0.7030 0.6735 0.2284
vn 0.9510 0.0000 0.3090
vn -0.5878 0.0000 0.8090
vn -0.5980 0.6735 0.4344
vn -0.8090 0.0000 0.5878
vn -0.3090 0.0000 -0.9510
vn 0.0000 0.0000 -1.0000
vn 0.9510 0.0000 -0.3090
vn 0.7391 0.6735 0.0000
vn -0.3090 0.0000 0.9510
vn -0.5878 0.0000 -0.8090
vn -0.2284 0.6735 -0.7030
vn 0.8090 0.0000 -0.5878
vn 0.7030 0.6735 -0.2284
vn 0.0000 0.0000 1.0000
vn -0.2284 0.6735 0.7030
vn -0.8090 0.0000 -0.5878
vn -0.4345 0.6735 -0.5980
vn 0.5878 0.0000 -0.8090
vn 0.5980 0.6735 -0.4345
vn 0.3090 0.0000 0.9510
vn 0.0000 0.6735 0.7391
vn -0.9510 0.0000 -0.3090
vn -0.5980 0.6735 -0.4344
vn 0.3090 0.0000 -0.9510
vn 0.5878 0.0000 0.8090
vn 0.2284 0.6735 0.7030
vn -1.0000 0.0000 0.0000
vn -0.7030 0.6735 -0.2284
vn 0.2284 0.6735 -0.7030
vn 0.8090 0.0000 0.5878
vn 0.4345 0.6735 0.5980
vn -0.9510 0.0000 0.3090
vn -0.7391 0.6735 0.0000
vn 0.5980 0.6735 0.4345
vn -0.7030 0.6735 0.2284
vn -0.5980 -0.6735 0.4345
vn 0.5980 -0.6735 0.4345
vn -0.7391 -0.6735 0.0000
vn 0.4345 -0.6735 0.5980
vn 0.0000 -0.6735 -0.7391
vn 0.2284 -0.6735 -0.7030
vn -0.7030 -0.6735 -0.2284
vn 0.2284 -0.6735 0.7030
vn 0.4345 -0.6735 -0.5980
vn -0.5980 -0.6735 -0.4345
vn 0.0000 -0.6735 0.7391
vn 0.5980 -0.6735 -0.4345
vn -0.2284 -0.6735 0.7030
vn 0.7030 -0.6735 -0.2284
vn -0.2284 -0.6735 -0.7030
vn -0.4345 -0.6735 0.5980
vn 0.7391 -0.6735 0.0000
vn 0.5773 -0.5773 -0.5773
vn -0.5773 0.5773 -0.5773
vn 0.5773 0.5773 -0.5773
vn -0.5773 0.5773 0.5773
vn 0.5773 -0.5773 0.5773
vn 0.5773 0.5773 0.5773
vn -0.5773 -0.5773 -0.5773
vn -0.5773 -0.5773 0.5773
s 1
f 15/1/1 7/2/2 3/3/3
f 39/4/4 22/5/5 29/6/6
f 69/7/7 35/8/8 86/9/9
f 70/10/10 28/11/11 87/12/12
f 71/13/13 22/14/5 88/15/14
f 72/16/15 36/17/16 69/18/7
f 73/19/17 29/20/6 70/21/10
f 74/22/18 21/23/19 71/24/13
f 75/25/20 37/26/21 72/27/15
f 76/28/22 30/29/23 73/30/17
f 77/31/24 23/32/25 74/33/18
f 78/34/26 38/35/27 75/36/20
f 79/37/28 31/38/29 76/39/22
f 80/40/30 24/41/31 77/42/24
f 81/43/32 39/44/4 78/45/26
f 82/46/33 32/47/34 79/48/28
f 83/49/35 25/50/36 80/51/30
f 88/52/14 40/53/37 81/54/32
f 84/55/38 33/56/39 82/57/33
f 85/58/40 26/59/41 83/60/35
f 86/61/9 34/62/42 84/63/38
f 87/64/12 27/65/43 85/66/40
f 8/67/44 68/68/40 7/69/2
f 15/70/1 67/71/38 14/72/45
f 7/73/2 66/74/35 6/75/46
f 14/76/45 65/77/33 13/78/47
f 1/79/48 64/80/32 20/81/49
f 6/82/46 63/83/30 5/84/50
f 13/85/47 62/86/28 12/87/51
f 20/88/49 61/89/26 19/90/52
f 5/91/50 60/92/24 4/93/53
f 12/94/51 59/95/22 11/96/54
f 19/97/52 58/98/20 18/99/55
f 4/100/53 57/101/18 3/102/3
f 11/103/54 56/104/17 10/105/56
f 18/106/55 55/107/15 17/108/57
f 3/109/3 53/110/13 2/111/58
f 10/112/56 51/113/10 9/114/59
f 17/115/57 49/116/7 16/117/60
f 2/118/58 54/119/14 1/120/48
f 9/121/59 52/122/12 8/123/44
f 16/124/60 50/125/9 15/126/1
f 3/3/3 2/127/58 1/128/48
f 1/128/48 20/129/49 19/130/52
f 19/130/52 18/131/55 17/132/57
f 17/132/57 16/133/60 15/1/1
f 15/1/1 14/134/45 13/135/47
f 13/135/47 12/136/51 11/137/54
f 11/137/54 10/138/56 9/139/59
f 9/139/59 8/140/44 7/2/2
f 7/2/2 6/141/46 3/3/3
f 6/141/46 5/142/50 3/3/3
f 5/142/50 4/143/53 3/3/3
f 3/3/3 1/128/48 19/130/52
f 19/130/52 17/132/57 3/3/3
f 17/132/57 15/1/1 3/3/3
f 15/1/1 13/135/47 11/137/54
f 11/137/54 9/139/59 7/2/2
f 15/1/1 11/137/54 7/2/2
f 22/5/5 21/144/19 23/145/25
f 23/145/25 24/146/31 25/147/36
f 25/147/36 26/148/41 29/6/6
f 26/148/41 27/149/43 29/6/6
f 27/149/43 28/150/11 29/6/6
f 29/6/6 30/151/23 31/152/29
f 31/152/29 32/153/34 33/154/39
f 33/154/39 34/155/42 35/156/8
f 35/156/8 36/157/16 37/158/21
f 37/158/21 38/159/27 39/4/4
f 39/4/4 40/160/37 22/5/5
f 22/5/5 23/145/25 29/6/6
f 23/145/25 25/147/36 29/6/6
f 29/6/6 31/152/29 37/158/21
f 31/152/29 33/154/39 37/158/21
f 33/154/39 35/156/8 37/158/21
f 37/158/21 39/4/4 29/6/6
f 69/7/7 36/161/16 35/8/8
f 70/10/10 29/162/6 28/11/11
f 71/13/13 21/163/19 22/14/5
f 72/16/15 37/164/21 36/17/16
f 73/19/17 30/165/23 29/20/6
f 74/22/18 23/166/25 21/23/19
f 75/25/20 38/167/27 37/26/21
f 76/28/22 31/168/29 30/29/23
f 77/31/24 24/169/31 23/32/25
f 78/34/26 39/170/4 38/35/27
f 79/37/28 32/171/34 31/38/29
f 80/40/30 25/172/36 24/41/31
f 81/43/32 40/173/37 39/44/4
f 82/46/33 33/174/39 32/47/34
f 83/49/35 26/175/41 25/50/36
f 88/52/14 22/176/5 40/53/37
f 84/55/38 34/177/42 33/56/39
f 85/58/40 27/178/43 26/59/41
f 86/61/9 35/179/8 34/62/42
f 87/64/12 28/180/11 27/65/43
f 8/67/44 52/181/12 68/68/40
f 15/70/1 50/182/9 67/71/38
f 7/73/2 68/183/40 66/74/35
f 14/76/45 67/184/38 65/77/33
f 1/79/48 54/185/14 64/80/32
f 6/82/46 66/186/35 63/83/30
f 13/85/47 65/187/33 62/86/28
f 20/88/49 64/188/32 61/89/26
f 5/91/50 63/189/30 60/92/24
f 12/94/51 62/190/28 59/95/22
f 19/97/52 61/191/26 58/98/20
f 4/100/53 60/192/24 57/101/18
f 11/103/54 59/193/22 56/104/17
f 18/106/55 58/194/20 55/107/15
f 3/109/3 57/195/18 53/110/13
f 10/112/56 56/196/17 51/113/10
f 17/115/57 55/197/15 49/116/7
f 2/118/58 53/198/13 54/119/14
f 9/121/59 51/199/10 52/122/12
f 16/124/60 49/200/7 50/125/9
f 43/201/61 42/202/62 41/203/63
f 47/204/64 45/205/65 46/206/66
f 42/207/62 46/208/66 41/209/63
f 44/210/67 47/211/64 42/212/62
f 41/213/63 45/214/65 43/215/61
f 43/216/61 48/217/68 44/218/67
f 52/219/12 85/220/40 68/221/40
f 50/222/9 84/223/38 67/224/38
f 68/225/40 83/226/35 66/227/35
f 67/228/38 82/229/33 65/230/33
f 54/231/14 81/232/32 64/233/32
f 66/234/35 80/235/30 63/236/30
f 65/237/33 79/238/28 62/239/28
f 64/240/32 78/241/26 61/242/26
f 63/243/30 77/244/24 60/245/24
f 62/246/28 76/247/22 59/248/22
f 61/249/26 75/250/20 58/251/20
f 60/252/24 74/253/18 57/254/18
f 59/255/22 73/256/17 56/257/17
f 58/258/20 72/259/15 55/260/15
f 57/261/18 71/262/13 53/263/13
f 56/264/17 70/265/10 51/266/10
f 55/267/15 69/268/7 49/269/7
f 53/270/13 88/271/14 54/272/14
f 51/273/10 87/274/12 52/275/12
f 49/276/7 86/277/9 50/278/9
f 43/201/61 44/279/67 42/202/62
f 47/204/64 48/280/68 45/205/65
f 42/207/62 47/281/64 46/208/66
f 44/210/67 48/282/68 47/211/64
f 41/213/63 46/283/66 45/214/65
f 43/216/61 45/284/65 48/217/68
f 52/219/12 87/285/12 85/220/40
f 50/222/9 86/286/9 84/223/38
f 68/225/40 85/287/40 83/226/35
f 67/228/38 84/288/38 82/229/33
f 54/231/14 88/289/14 81/232/32
f 66/234/35 83/290/35 80/235/30
f 65/237/33 82/291/33 79/238/28
f 64/240/32 81/292/32 78/241/26
f 63/243/30 80/293/30 77/244/24
f 62/246/28 79/294/28 76/247/22
f 61/249/26 78/295/26 75/250/20
f 60/252/24 77/296/24 74/253/18
f 59/255/22 76/297/22 73/256/17
f 58/258/20 75/298/20 72/259/15
f 57/261/18 74/299/18 71/262/13
f 56/264/17 73/300/17 70/265/10
f 55/267/15 72/301/15 69/268/7
f 53/270/13 71/302/13 88/271/14
f 51/273/10 70/303/10 87/274/12
f 49/276/7 69/304/7 86/277/9
