# Blender v2.82 (sub 7) OBJ File: 'models.blend'
# www.blender.org
mtllib arrow.mtl
o Arrow_Cylinder.001
v 0.060907 0.034821 -0.491674
v -4.923004 0.034821 -0.491674
v 0.060907 0.130742 -0.482227
v -4.923004 0.130742 -0.482227
v 0.060907 0.222977 -0.454248
v -4.923004 0.222977 -0.454248
v 0.060907 0.307981 -0.408812
v -4.923004 0.307981 -0.408812
v 0.060907 0.382487 -0.347666
v -4.923004 0.382488 -0.347666
v 0.060907 0.443634 -0.273160
v -4.923004 0.443634 -0.273160
v 0.060907 0.489069 -0.188156
v -4.923004 0.489069 -0.188156
v 0.060907 0.517048 -0.095921
v -4.923004 0.517048 -0.095921
v 0.060907 0.526495 -0.000000
v -4.923004 0.526496 -0.000000
v 0.060907 0.517048 0.095921
v -4.923004 0.517048 0.095921
v 0.060907 0.489069 0.188155
v -4.923004 0.489069 0.188155
v 0.060907 0.443634 0.273159
v -4.923004 0.443634 0.273159
v 0.060907 0.382487 0.347666
v -4.923004 0.382488 0.347666
v 0.060907 0.307981 0.408812
v -4.923004 0.307981 0.408812
v 0.060907 0.222977 0.454248
v -4.923004 0.222977 0.454248
v 0.060907 0.130742 0.482227
v -4.923004 0.130742 0.482227
v 0.060907 0.034821 0.491674
v -4.923004 0.034821 0.491674
v 0.060907 -0.061100 0.482227
v -4.923004 -0.061100 0.482227
v 0.060907 -0.153335 0.454247
v -4.923004 -0.153334 0.454247
v 0.060907 -0.238338 0.408812
v -4.923004 -0.238338 0.408812
v 0.060907 -0.312845 0.347666
v -4.923004 -0.312845 0.347666
v 0.060907 -0.373991 0.273159
v -4.923004 -0.373991 0.273159
v 0.060907 -0.419427 0.188155
v -4.923004 -0.419427 0.188155
v 0.060907 -0.447406 0.095920
v -4.923004 -0.447406 0.095920
v 0.060907 -0.456853 -0.000001
v -4.923004 -0.456853 -0.000001
v 0.060907 -0.447406 -0.095922
v -4.923004 -0.447406 -0.095922
v 0.060907 -0.419426 -0.188156
v -4.923004 -0.419426 -0.188156
v 0.060907 -0.373991 -0.273160
v -4.923004 -0.373991 -0.273160
v 0.060907 -0.312845 -0.347667
v -4.923004 -0.312845 -0.347667
v 0.060907 -0.238338 -0.408813
v -4.923004 -0.238338 -0.408813
v 0.060907 -0.153334 -0.454248
v -4.923004 -0.153334 -0.454248
v 0.060907 -0.061099 -0.482227
v -4.923004 -0.061099 -0.482227
v -4.506239 0.034821 -1.000000
v -4.506239 0.229912 -0.980785
v -4.506239 0.417505 -0.923880
v -4.506239 0.590391 -0.831470
v -4.506239 0.741928 -0.707107
v -4.506239 0.866291 -0.555570
v -4.506238 0.958701 -0.382683
v -4.506238 1.015606 -0.195090
v -4.506239 1.034821 -0.000000
v -4.506239 1.015607 0.195090
v -4.506239 0.958701 0.382683
v -4.506239 0.866291 0.555570
v -4.506239 0.741928 0.707107
v -4.506239 0.590391 0.831470
v -4.506239 0.417505 0.923880
v -4.506239 0.229911 0.980785
v -4.506239 0.034821 1.000000
v -4.506239 -0.160269 0.980785
v -4.506239 -0.347863 0.923879
v -4.506239 -0.520750 0.831469
v -4.506239 -0.672286 0.707106
v -4.506239 -0.796649 0.555570
v -4.506239 -0.889059 0.382683
v -7.163921 0.034821 0.000000
v -4.506239 -0.945964 0.195089
v -4.506239 -0.965179 -0.000001
v -4.506239 -0.945964 -0.195091
v -4.506239 -0.889058 -0.382684
v -4.506239 -0.796648 -0.555571
v -4.506239 -0.672285 -0.707108
v -4.506239 -0.520748 -0.831470
v -4.506239 -0.347861 -0.923880
v -4.506239 -0.160268 -0.980786
vt 0.816582 0.365236
vt 0.728873 0.543855
vt 0.816582 0.543855
vt 0.180218 0.271127
vt 0.001600 0.183418
vt 0.001600 0.271127
vt 0.271127 0.001600
vt 0.183418 0.180218
vt 0.271127 0.180218
vt 0.180218 0.362036
vt 0.001600 0.274327
vt 0.001600 0.362036
vt 0.362036 0.001600
vt 0.274327 0.180218
vt 0.362036 0.180218
vt 0.362036 0.271127
vt 0.183418 0.183418
vt 0.183418 0.271127
vt 0.452945 0.001600
vt 0.365236 0.180218
vt 0.452945 0.180218
vt 0.362036 0.362036
vt 0.183418 0.274327
vt 0.183418 0.362036
vt 0.452945 0.183418
vt 0.365236 0.362036
vt 0.452945 0.362036
vt 0.180218 0.452945
vt 0.001600 0.365236
vt 0.001600 0.452945
vt 0.543855 0.001600
vt 0.456145 0.180218
vt 0.543855 0.180218
vt 0.362036 0.452945
vt 0.183418 0.365236
vt 0.183418 0.452945
vt 0.543855 0.183418
vt 0.456145 0.362036
vt 0.543855 0.362036
vt 0.180218 0.543855
vt 0.001600 0.456145
vt 0.001600 0.543855
vt 0.452945 0.365236
vt 0.365236 0.543855
vt 0.452945 0.543855
vt 0.362036 0.543855
vt 0.183418 0.456145
vt 0.183418 0.543855
vt 0.543855 0.365236
vt 0.456145 0.543855
vt 0.543855 0.543855
vt 0.180218 0.634764
vt 0.001600 0.547055
vt 0.001600 0.634764
vt 0.634764 0.001600
vt 0.547055 0.180218
vt 0.634764 0.180218
vt 0.362036 0.634764
vt 0.183418 0.547055
vt 0.183418 0.634764
vt 0.634764 0.362036
vt 0.547055 0.183418
vt 0.547055 0.362036
vt 0.543855 0.634764
vt 0.365236 0.547055
vt 0.365236 0.634764
vt 0.634764 0.365236
vt 0.547055 0.543855
vt 0.634764 0.543855
vt 0.180218 0.725673
vt 0.001600 0.637964
vt 0.001600 0.725673
vt 0.725673 0.001600
vt 0.637964 0.180218
vt 0.725673 0.180218
vt 0.362036 0.725673
vt 0.183418 0.637964
vt 0.183418 0.725673
vt 0.725673 0.183418
vt 0.637964 0.362036
vt 0.725673 0.362036
vt 0.543855 0.725673
vt 0.365236 0.637964
vt 0.365236 0.725673
vt 0.725673 0.365236
vt 0.637964 0.543855
vt 0.725673 0.543855
vt 0.725673 0.634764
vt 0.547055 0.547055
vt 0.547055 0.634764
vt 0.003285 0.967337
vt 0.032663 0.912376
vt 0.087624 0.941754
vt 0.816582 0.183418
vt 0.728873 0.362036
vt 0.816582 0.362036
vt 0.725673 0.725673
vt 0.547055 0.637964
vt 0.547055 0.725673
vt 0.926590 0.011390
vt 0.958865 0.001600
vt 0.950226 0.089309
vt 0.725673 0.821382
vt 0.548655 0.907491
vt 0.725673 0.907491
vt 0.547055 0.819782
vt 0.724073 0.819782
vt 0.547055 0.905891
vt 0.816582 0.180218
vt 0.816582 0.003200
vt 0.730473 0.180218
vt 0.814982 0.001600
vt 0.728873 0.178618
vt 0.728873 0.001600
vt 0.362036 0.816582
vt 0.185018 0.816582
vt 0.362036 0.730473
vt 0.730473 0.725673
vt 0.816582 0.548655
vt 0.816582 0.725673
vt 0.180218 0.816582
vt 0.003200 0.816582
vt 0.180218 0.730473
vt 0.001600 0.728873
vt 0.178618 0.728873
vt 0.001600 0.814982
vt 0.907491 0.907491
vt 0.907491 0.730473
vt 0.821382 0.907491
vt 0.905891 0.728873
vt 0.819782 0.905891
vt 0.819782 0.728873
vt 0.907491 0.725673
vt 0.907491 0.548655
vt 0.821382 0.725673
vt 0.730473 0.907491
vt 0.816582 0.730473
vt 0.816582 0.907491
vt 0.543855 0.907491
vt 0.366836 0.907491
vt 0.543855 0.821382
vt 0.365236 0.819782
vt 0.542255 0.819782
vt 0.365236 0.905891
vt 0.362036 0.821382
vt 0.185018 0.907491
vt 0.362036 0.907491
vt 0.180218 0.907491
vt 0.003200 0.907491
vt 0.180218 0.821382
vt 0.821382 0.543855
vt 0.907491 0.366836
vt 0.907491 0.543855
vt 0.814982 0.728873
vt 0.728873 0.905891
vt 0.728873 0.728873
vt 0.725673 0.816582
vt 0.548655 0.816582
vt 0.725673 0.730473
vt 0.183418 0.819782
vt 0.360436 0.819782
vt 0.183418 0.905891
vt 0.905891 0.547055
vt 0.819782 0.724073
vt 0.819782 0.547055
vt 0.821382 0.180218
vt 0.907491 0.003200
vt 0.907491 0.180218
vt 0.821382 0.362036
vt 0.907491 0.185018
vt 0.907491 0.362036
vt 0.001600 0.819782
vt 0.178618 0.819782
vt 0.001600 0.905891
vt 0.543855 0.730473
vt 0.366836 0.816582
vt 0.543855 0.816582
vt 0.905891 0.365236
vt 0.819782 0.542255
vt 0.819782 0.365236
vt 0.547055 0.728873
vt 0.724073 0.728873
vt 0.547055 0.814982
vt 0.905891 0.183418
vt 0.819782 0.360436
vt 0.819782 0.183418
vt 0.365236 0.728873
vt 0.542255 0.728873
vt 0.365236 0.814982
vt 0.905891 0.001600
vt 0.819782 0.178618
vt 0.819782 0.001600
vt 0.183418 0.814982
vt 0.360436 0.728873
vt 0.183418 0.728873
vt 0.728873 0.547055
vt 0.728873 0.724073
vt 0.814982 0.547055
vt 0.176786 0.116960
vt 0.064859 0.176786
vt 0.005032 0.064859
vt 0.728873 0.365236
vt 0.180218 0.183418
vt 0.183418 0.001600
vt 0.180218 0.274327
vt 0.274327 0.001600
vt 0.362036 0.183418
vt 0.365236 0.001600
vt 0.362036 0.274327
vt 0.365236 0.183418
vt 0.180218 0.365236
vt 0.456145 0.001600
vt 0.362036 0.365236
vt 0.456145 0.183418
vt 0.180218 0.456145
vt 0.365236 0.365236
vt 0.362036 0.456145
vt 0.456145 0.365236
vt 0.180218 0.547055
vt 0.547055 0.001600
vt 0.362036 0.547055
vt 0.634764 0.183418
vt 0.543855 0.547055
vt 0.547055 0.365236
vt 0.180218 0.637964
vt 0.637964 0.001600
vt 0.362036 0.637964
vt 0.637964 0.183418
vt 0.543855 0.637964
vt 0.637964 0.365236
vt 0.725673 0.547055
vt 0.001600 0.958865
vt 0.001600 0.950226
vt 0.003285 0.941754
vt 0.006591 0.933773
vt 0.011390 0.926590
vt 0.017499 0.920481
vt 0.024682 0.915682
vt 0.041135 0.910691
vt 0.049774 0.910691
vt 0.058246 0.912376
vt 0.066227 0.915682
vt 0.073410 0.920481
vt 0.079519 0.926590
vt 0.084318 0.933773
vt 0.089309 0.950226
vt 0.089309 0.958865
vt 0.087624 0.967337
vt 0.084318 0.975318
vt 0.079519 0.982501
vt 0.073410 0.988609
vt 0.066227 0.993409
vt 0.058246 0.996715
vt 0.049774 0.998400
vt 0.024682 0.993409
vt 0.041135 0.998400
vt 0.032663 0.996715
vt 0.017499 0.988609
vt 0.011390 0.982501
vt 0.006591 0.975318
vt 0.728873 0.183418
vt 0.725673 0.637964
vt 0.967337 0.003285
vt 0.975318 0.006591
vt 0.982501 0.011390
vt 0.988609 0.017499
vt 0.993409 0.024682
vt 0.998400 0.049774
vt 0.996715 0.032663
vt 0.998400 0.041135
vt 0.996715 0.058246
vt 0.993409 0.066227
vt 0.988609 0.073410
vt 0.982501 0.079519
vt 0.975318 0.084318
vt 0.967337 0.087624
vt 0.958865 0.089309
vt 0.941754 0.087624
vt 0.933773 0.084318
vt 0.926590 0.079519
vt 0.920481 0.073410
vt 0.915682 0.066227
vt 0.912376 0.058246
vt 0.910691 0.049774
vt 0.910691 0.041135
vt 0.912376 0.032663
vt 0.915682 0.024682
vt 0.920481 0.017499
vt 0.933773 0.006591
vt 0.941754 0.003285
vt 0.950226 0.001600
vt 0.116960 0.005032
vt 0.133213 0.011764
vt 0.147840 0.021538
vt 0.160280 0.033978
vt 0.170054 0.048605
vt 0.176786 0.064859
vt 0.180218 0.082113
vt 0.180218 0.099705
vt 0.170054 0.133213
vt 0.160280 0.147840
vt 0.147840 0.160280
vt 0.133213 0.170054
vt 0.116960 0.176786
vt 0.099705 0.180218
vt 0.082113 0.180218
vt 0.048605 0.170054
vt 0.033978 0.160280
vt 0.021538 0.147840
vt 0.011764 0.133213
vt 0.005032 0.116960
vt 0.001600 0.099705
vt 0.001600 0.082113
vt 0.011764 0.048605
vt 0.048605 0.011764
vt 0.021538 0.033978
vt 0.033978 0.021538
vt 0.064859 0.005032
vt 0.082113 0.001600
vt 0.099705 0.001600
vn -0.6857 0.0000 -0.7279
vn 0.6857 0.1420 -0.7139
vn 0.6857 0.0000 -0.7279
vn -0.6857 0.1420 -0.7139
vn 0.6857 0.2785 -0.6725
vn -0.6857 0.2785 -0.6725
vn 0.6857 0.4044 -0.6052
vn -0.6857 0.4044 -0.6052
vn 0.6857 0.5147 -0.5147
vn -0.6857 0.5147 -0.5147
vn 0.6857 0.6052 -0.4044
vn -0.6857 0.6052 -0.4044
vn 0.6857 0.6725 -0.2785
vn -0.6857 0.6725 -0.2785
vn 0.6857 0.7139 -0.1420
vn -0.6857 0.7139 -0.1420
vn 0.6857 0.7279 0.0000
vn -0.6857 0.7279 0.0000
vn 0.6857 0.7139 0.1420
vn -0.6857 0.7139 0.1420
vn 0.6857 0.6725 0.2785
vn -0.6857 0.6725 0.2785
vn 0.6857 0.6052 0.4044
vn -0.6857 0.6052 0.4044
vn 0.6857 0.5147 0.5147
vn -0.6857 0.5147 0.5147
vn 0.6857 0.4044 0.6052
vn -0.6857 0.4044 0.6052
vn 0.6857 0.2785 0.6725
vn -0.6857 0.2785 0.6725
vn 0.6857 0.1420 0.7139
vn -0.6857 0.1420 0.7139
vn 0.6857 0.0000 0.7279
vn -0.6857 0.0000 0.7279
vn 0.6857 -0.1420 0.7139
vn -0.6857 -0.1420 0.7139
vn 0.6857 -0.2785 0.6724
vn -0.6857 -0.2785 0.6725
vn 0.6857 -0.4044 0.6052
vn -0.6857 -0.4044 0.6052
vn 0.6857 -0.5147 0.5147
vn -0.6857 -0.6052 0.4044
vn 0.6857 -0.6052 0.4044
vn 0.6857 -0.6725 0.2785
vn -0.6857 -0.6725 0.2785
vn 0.6857 -0.7139 0.1420
vn -0.6857 -0.7139 0.1420
vn 0.6857 -0.7279 0.0000
vn -0.6857 -0.7279 0.0000
vn 0.6857 -0.7139 -0.1420
vn -0.6857 -0.7139 -0.1420
vn 0.6857 -0.6725 -0.2785
vn -0.6857 -0.6725 -0.2785
vn 0.6857 -0.6052 -0.4044
vn -0.6857 -0.6052 -0.4044
vn 0.6857 -0.5147 -0.5147
vn -0.6857 -0.5147 -0.5147
vn 0.6857 -0.4044 -0.6052
vn -0.6857 -0.4044 -0.6052
vn 0.6857 -0.2785 -0.6725
vn -0.6857 -0.2785 -0.6725
vn 0.6857 -0.1420 -0.7139
vn -0.6857 -0.1420 -0.7139
vn 0.5463 0.0000 -0.8375
vn -1.0000 0.0000 0.0000
vn 0.5463 0.1634 -0.8215
vn 0.5463 0.3205 -0.7738
vn 0.5463 0.4653 -0.6964
vn 0.5463 0.5922 -0.5922
vn 0.5463 0.6964 -0.4653
vn 0.5463 0.7738 -0.3205
vn 0.5463 0.8215 -0.1634
vn 0.5463 0.8375 0.0000
vn 0.5463 0.8215 0.1634
vn 0.5463 0.7738 0.3205
vn 0.5463 0.6964 0.4653
vn 0.5463 0.5922 0.5922
vn 0.5463 0.4653 0.6964
vn 0.5463 0.3205 0.7738
vn 0.5463 0.1634 0.8215
vn 0.5463 0.0000 0.8375
vn 0.5463 -0.1634 0.8215
vn 0.5463 -0.3205 0.7738
vn 0.5463 -0.4653 0.6964
vn 0.5463 -0.5922 0.5922
vn 0.5463 -0.6964 0.4653
vn 0.5463 -0.7738 0.3205
vn 0.5463 -0.8215 0.1634
vn 0.5463 -0.8376 0.0000
vn 0.5463 -0.8215 -0.1634
vn 0.5463 -0.7738 -0.3205
vn 0.5463 -0.6964 -0.4653
vn 0.5463 -0.5922 -0.5922
vn 0.5463 -0.4653 -0.6964
vn 0.5463 -0.3205 -0.7738
vn 0.5463 -0.1634 -0.8215
vn -0.6857 -0.5147 0.5147
usemtl White.002
s 1
f 2/1/1 3/2/2 1/3/3
f 4/4/4 5/5/5 3/6/2
f 6/7/6 7/8/7 5/9/5
f 8/10/8 9/11/9 7/12/7
f 10/13/10 11/14/11 9/15/9
f 12/16/12 13/17/13 11/18/11
f 14/19/14 15/20/15 13/21/13
f 16/22/16 17/23/17 15/24/15
f 18/25/18 19/26/19 17/27/17
f 20/28/20 21/29/21 19/30/19
f 22/31/22 23/32/23 21/33/21
f 24/34/24 25/35/25 23/36/23
f 26/37/26 27/38/27 25/39/25
f 28/40/28 29/41/29 27/42/27
f 30/43/30 31/44/31 29/45/29
f 32/46/32 33/47/33 31/48/31
f 34/49/34 35/50/35 33/51/33
f 36/52/36 37/53/37 35/54/35
f 38/55/38 39/56/39 37/57/37
f 40/58/40 41/59/41 39/60/39
f 41/61/41 44/62/42 43/63/43
f 44/64/42 45/65/44 43/66/43
f 46/67/45 47/68/46 45/69/44
f 48/70/47 49/71/48 47/72/46
f 50/73/49 51/74/50 49/75/48
f 52/76/51 53/77/52 51/78/50
f 54/79/53 55/80/54 53/81/52
f 56/82/55 57/83/56 55/84/54
f 58/85/57 59/86/58 57/87/56
f 60/88/59 61/89/60 59/90/58
f 6/91/6 54/92/53 38/93/38
f 62/94/61 63/95/62 61/96/60
f 64/97/63 1/98/3 63/99/62
f 55/100/54 63/101/62 31/102/31
f 65/103/64 88/104/65 66/105/66
f 66/106/66 88/107/65 67/108/67
f 67/109/67 88/110/65 68/111/68
f 68/112/68 88/113/65 69/114/69
f 69/115/69 88/116/65 70/117/70
f 70/118/70 88/119/65 71/120/71
f 71/121/71 88/122/65 72/123/72
f 72/124/72 88/125/65 73/126/73
f 73/127/73 88/128/65 74/129/74
f 74/130/74 88/131/65 75/132/75
f 75/133/75 88/134/65 76/135/76
f 76/136/76 88/137/65 77/138/77
f 77/139/77 88/140/65 78/141/78
f 78/142/78 88/143/65 79/144/79
f 79/145/79 88/146/65 80/147/80
f 80/148/80 88/149/65 81/150/81
f 81/151/81 88/152/65 82/153/82
f 82/154/82 88/155/65 83/156/83
f 83/157/83 88/158/65 84/159/84
f 84/160/84 88/161/65 85/162/85
f 85/163/85 88/164/65 86/165/86
f 86/166/86 88/167/65 87/168/87
f 87/169/87 88/170/65 89/171/88
f 89/172/88 88/173/65 90/174/89
f 90/175/89 88/176/65 91/177/90
f 91/178/90 88/179/65 92/180/91
f 92/181/91 88/182/65 93/183/92
f 93/184/92 88/185/65 94/186/93
f 94/187/93 88/188/65 95/189/94
f 95/190/94 88/191/65 96/192/95
f 96/193/95 88/194/65 97/195/96
f 97/196/96 88/197/65 65/198/64
f 72/199/72 80/200/80 89/201/88
f 2/1/1 4/202/4 3/2/2
f 4/4/4 6/203/6 5/5/5
f 6/7/6 8/204/8 7/8/7
f 8/10/8 10/205/10 9/11/9
f 10/13/10 12/206/12 11/14/11
f 12/16/12 14/207/14 13/17/13
f 14/19/14 16/208/16 15/20/15
f 16/22/16 18/209/18 17/23/17
f 18/25/18 20/210/20 19/26/19
f 20/28/20 22/211/22 21/29/21
f 22/31/22 24/212/24 23/32/23
f 24/34/24 26/213/26 25/35/25
f 26/37/26 28/214/28 27/38/27
f 28/40/28 30/215/30 29/41/29
f 30/43/30 32/216/32 31/44/31
f 32/46/32 34/217/34 33/47/33
f 34/49/34 36/218/36 35/50/35
f 36/52/36 38/219/38 37/53/37
f 38/55/38 40/220/40 39/56/39
f 40/58/40 42/221/97 41/59/41
f 41/61/41 42/222/97 44/62/42
f 44/64/42 46/223/45 45/65/44
f 46/67/45 48/224/47 47/68/46
f 48/70/47 50/225/49 49/71/48
f 50/73/49 52/226/51 51/74/50
f 52/76/51 54/227/53 53/77/52
f 54/79/53 56/228/55 55/80/54
f 56/82/55 58/229/57 57/83/56
f 58/85/57 60/230/59 59/86/58
f 60/88/59 62/231/61 61/89/60
f 6/91/6 4/232/4 2/233/1
f 2/233/1 64/234/63 6/91/6
f 64/234/63 62/235/61 6/91/6
f 62/235/61 60/236/59 58/237/57
f 58/237/57 56/238/55 62/235/61
f 56/238/55 54/92/53 62/235/61
f 54/92/53 52/239/51 50/240/49
f 50/240/49 48/241/47 54/92/53
f 48/241/47 46/242/45 54/92/53
f 46/242/45 44/243/42 42/244/97
f 42/244/97 40/245/40 38/93/38
f 38/93/38 36/246/36 34/247/34
f 34/247/34 32/248/32 38/93/38
f 32/248/32 30/249/30 38/93/38
f 30/249/30 28/250/28 26/251/26
f 26/251/26 24/252/24 22/253/22
f 22/253/22 20/254/20 14/255/14
f 20/254/20 18/256/18 14/255/14
f 18/256/18 16/257/16 14/255/14
f 14/255/14 12/258/12 10/259/10
f 10/259/10 8/260/8 14/255/14
f 8/260/8 6/91/6 14/255/14
f 46/242/45 42/244/97 54/92/53
f 42/244/97 38/93/38 54/92/53
f 30/249/30 26/251/26 22/253/22
f 6/91/6 62/235/61 54/92/53
f 38/93/38 30/249/30 22/253/22
f 22/253/22 14/255/14 38/93/38
f 14/255/14 6/91/6 38/93/38
f 62/94/61 64/261/63 63/95/62
f 64/97/63 2/262/1 1/98/3
f 63/101/62 1/263/3 3/264/2
f 3/264/2 5/265/5 63/101/62
f 5/265/5 7/266/7 63/101/62
f 7/266/7 9/267/9 15/268/15
f 9/267/9 11/269/11 15/268/15
f 11/269/11 13/270/13 15/268/15
f 15/268/15 17/271/17 19/272/19
f 19/272/19 21/273/21 15/268/15
f 21/273/21 23/274/23 15/268/15
f 23/274/23 25/275/25 31/102/31
f 25/275/25 27/276/27 31/102/31
f 27/276/27 29/277/29 31/102/31
f 31/102/31 33/278/33 35/279/35
f 35/279/35 37/280/37 39/281/39
f 39/281/39 41/282/41 43/283/43
f 43/283/43 45/284/44 39/281/39
f 45/284/44 47/285/46 39/281/39
f 47/285/46 49/286/48 55/100/54
f 49/286/48 51/287/50 55/100/54
f 51/287/50 53/288/52 55/100/54
f 55/100/54 57/289/56 59/290/58
f 59/290/58 61/291/60 55/100/54
f 61/291/60 63/101/62 55/100/54
f 31/102/31 35/279/35 39/281/39
f 63/101/62 7/266/7 31/102/31
f 7/266/7 15/268/15 31/102/31
f 15/268/15 23/274/23 31/102/31
f 31/102/31 39/281/39 47/285/46
f 47/285/46 55/100/54 31/102/31
f 97/292/96 65/293/64 66/294/66
f 66/294/66 67/295/67 68/296/68
f 68/296/68 69/297/69 70/298/70
f 70/298/70 71/299/71 68/296/68
f 71/299/71 72/199/72 68/296/68
f 72/199/72 73/300/73 74/301/74
f 74/301/74 75/302/75 72/199/72
f 75/302/75 76/303/76 72/199/72
f 76/303/76 77/304/77 78/305/78
f 78/305/78 79/306/79 80/200/80
f 80/200/80 81/307/81 82/308/82
f 82/308/82 83/309/83 80/200/80
f 83/309/83 84/310/84 80/200/80
f 84/310/84 85/311/85 86/312/86
f 86/312/86 87/313/87 89/201/88
f 89/201/88 90/314/89 93/315/92
f 90/314/89 91/316/90 93/315/92
f 91/316/90 92/317/91 93/315/92
f 93/315/92 94/318/93 97/292/96
f 94/318/93 95/319/94 97/292/96
f 95/319/94 96/320/95 97/292/96
f 97/292/96 66/294/66 68/296/68
f 76/303/76 78/305/78 72/199/72
f 78/305/78 80/200/80 72/199/72
f 84/310/84 86/312/86 80/200/80
f 86/312/86 89/201/88 80/200/80
f 97/292/96 68/296/68 72/199/72
f 89/201/88 93/315/92 97/292/96
f 97/292/96 72/199/72 89/201/88
